<svg xmlns="http://www.w3.org/2000/svg" xml:space="preserve" style="enable-background:new 0 0 215 40" viewBox="0 0 215 40"><path d="M58.5 28.9V16.6h6.2v-2.8H49.5v2.8h6.2v12.2h2.8zm11.7 0v-5h9.6v5h2.8V16.7c0-.8-.3-1.5-.9-2-.6-.6-1.3-.9-2.1-.9h-9.3c-.8 0-1.5.3-2.1.9-.6.6-.9 1.3-.9 2v12.1h2.9zm0-11.5c0-.4 0-.6.1-.7 0 0 .3-.1.7-.1h8.1c.4 0 .6 0 .7.1.1 0 .1.3.1.7v3.7h-9.6v-3.7zm31.1 11.5v-2.8H88.9V13.8h-2.8v15h15.2zm16.3 0v-2.8h-11.2v-3.3h9V20h-9v-3.3h11.2v-2.8h-14v15h14zm6 0v-11l9.4 11h3.1v-15h-2.8v11l-9.3-11h-3.1v15h2.7zm24.1 0V16.6h6.2v-2.8h-15.2v2.8h6.2v12.2h2.8zm21 0c.8 0 1.5-.3 2.1-.9.6-.6.9-1.3.9-2v-3.1c0-.8-.3-1.5-.9-2.1-.6-.6-1.3-.9-2.1-.9H160c-.4 0-.6 0-.7-.1 0 0-.1-.3-.1-.6v-1.9c0-.4 0-.6.1-.7 0 0 .3-.1.7-.1h8.1c.4 0 .6 0 .7.1 0 0 .1.3.1.7v.5h2.8v-1.1c0-.8-.3-1.5-.9-2-.6-.6-1.3-.9-2.1-.9h-9.3c-.8 0-1.5.3-2.1.9-.6.6-.9 1.3-.9 2v3.1c0 .8.3 1.5.9 2.1.6.6 1.3.9 2.1.9h8.7c.4 0 .6 0 .7.1 0 0 .1.3.1.6v1.9c0 .4 0 .6-.1.7 0 0-.3.1-.7.1H160c-.4 0-.6 0-.7-.1 0 0-.1-.3-.1-.7v-.5h-2.8V26c0 .8.3 1.5.9 2 .6.6 1.3.9 2.1.9h9.3zm9.1 0v-6.1h10v6.1h2.8v-15h-2.8V20h-10v-6.1H175v15h2.8zm16.2 0h2.8v-15H194v15zm8.4 0v-5.1h9.5c.8 0 1.5-.3 2.1-.9.6-.6.9-1.3.9-2v-4c0-.8-.3-1.5-.9-2-.6-.6-1.3-.9-2.1-.9h-12.2v15h2.7zm.1-8s-.1-.3-.1-.6v-2.9c0-.4 0-.6.1-.7 0 0 .3-.1.7-.1h8.1c.4 0 .6 0 .7.1.1 0 .1.3.1.7v2.9c0 .4 0 .6-.1.6s-.3.1-.7.1h-8.1c-.4-.1-.6-.1-.7-.1z" style="fill-rule:evenodd;clip-rule:evenodd;fill:#fff"></path><path d="M43 19.5C33.5 18 25.6 11.2 22.8 2.2c-.9-2.9-1.5-2.6-2.3 0-3 9.4-11.1 15.9-20.3 17.3C0 21.6.1 23.8.6 26c7.9-1 15.7-5.2 21-12.1 5.2 6.7 12.8 11 21 12.1.5-2.3.6-4.5.4-6.5" style="fill-rule:evenodd;clip-rule:evenodd;fill:#f8b01d"></path><path d="M21.4 15.9C16.5 22.4 9.3 27 .9 28.4c.7 2 1.6 3.8 2.8 5.5 6.4-1.4 12.6-4.5 17.8-9.3 5 4.6 11.1 7.8 17.7 9.3 1.2-1.7 2.1-3.5 2.8-5.5-8.4-1.4-15.6-6-20.6-12.5" style="fill-rule:evenodd;clip-rule:evenodd;fill:#f27804" transform="translate(.07 .1)"></path><path d="M4.9 35.7c1.5 1.7 3.2 3.1 5.1 4.2 3.7-1.3 7.7-3.3 11.4-5.9 3.5 2.5 7.3 4.5 11.4 5.9 1.9-1.1 3.7-2.6 5.1-4.2-5.7-1.4-11.6-4.3-16.5-8.8-4.9 4.4-10.7 7.3-16.5 8.8z" style="fill-rule:evenodd;clip-rule:evenodd;fill:#f94d03" transform="translate(.07 .1)"></path></svg>